<svg width="22" height="22" viewBox="0 0 22 22" fill="none" xmlns="http://www.w3.org/2000/svg">
<g clip-path="url(#clip0_66_218)">
<path d="M14.6667 7.33342V11.9167C14.6667 12.6461 14.9564 13.3456 15.4721 13.8613C15.9878 14.377 16.6873 14.6667 17.4167 14.6667C18.146 14.6667 18.8455 14.377 19.3612 13.8613C19.8769 13.3456 20.1667 12.6461 20.1667 11.9167V11.0001C20.1665 8.93119 19.4665 6.92319 18.1805 5.30257C16.8945 3.68195 15.098 2.54404 13.0832 2.07385C11.0685 1.60367 8.95394 1.82887 7.0834 2.71284C5.21286 3.5968 3.69636 5.08754 2.78048 6.94266C1.8646 8.79778 1.60321 10.9082 2.03882 12.9307C2.47442 14.9532 3.58139 16.7689 5.17974 18.0825C6.77809 19.3961 8.77381 20.1304 10.8424 20.166C12.911 20.2015 14.9308 19.5363 16.5733 18.2784M14.6667 11.0001C14.6667 13.0251 13.025 14.6667 11 14.6667C8.97495 14.6667 7.33333 13.0251 7.33333 11.0001C7.33333 8.97504 8.97495 7.33342 11 7.33342C13.025 7.33342 14.6667 8.97504 14.6667 11.0001Z" stroke="#434343" stroke-width="2" stroke-linecap="round" stroke-linejoin="round"/>
</g>
<defs>
<clipPath id="clip0_66_218">
<rect width="22" height="22" fill="white"/>
</clipPath>
</defs>
</svg>
