<svg width="23" height="23" viewBox="0 0 23 23" fill="none" xmlns="http://www.w3.org/2000/svg">
<path d="M6.70833 10.5415V6.70817C6.70833 5.43734 7.21317 4.21856 8.11178 3.31995C9.01039 2.42134 10.2292 1.9165 11.5 1.9165C12.7708 1.9165 13.9896 2.42134 14.8882 3.31995C15.7868 4.21856 16.2917 5.43734 16.2917 6.70817V10.5415M4.79167 10.5415H18.2083C19.2669 10.5415 20.125 11.3996 20.125 12.4582V19.1665C20.125 20.2251 19.2669 21.0832 18.2083 21.0832H4.79167C3.73312 21.0832 2.875 20.2251 2.875 19.1665V12.4582C2.875 11.3996 3.73312 10.5415 4.79167 10.5415Z" stroke="#434343" stroke-width="2" stroke-linecap="round" stroke-linejoin="round"/>
</svg>
